<?xml version="1.0" encoding="utf-8"?>
<!-- Generator: Adobe Illustrator 27.3.1, SVG Export Plug-In . SVG Version: 6.00 Build 0)  -->
<svg version="1.1" id="Layer_1" xmlns="http://www.w3.org/2000/svg" xmlns:xlink="http://www.w3.org/1999/xlink" x="0px" y="0px"
	 viewBox="0 0 134 40" style="enable-background:new 0 0 134 40;" xml:space="preserve">
<style type="text/css">
	.st0{clip-path:url(#SVGID_00000120535145029983887790000006220872451492677276_);}
	.st1{fill:#009640;}
</style>
<g>
	<defs>
		<rect id="SVGID_1_" y="0" width="133.6" height="40"/>
	</defs>
	<clipPath id="SVGID_00000145023938046299156370000000925417251706077594_">
		<use xlink:href="#SVGID_1_"  style="overflow:visible;"/>
	</clipPath>
	<g style="clip-path:url(#SVGID_00000145023938046299156370000000925417251706077594_);">
		<path d="M13.2,22.2h10.1v2.7h-6.9v5h5.8v2.7h-5.8v7.1h-3.2V22.2z"/>
		<path d="M30.1,26.8c0.9,0,1.8,0.1,2.6,0.4c0.8,0.3,1.6,0.8,2.3,1.4c0.6,0.6,1.2,1.4,1.5,2.2c0.4,0.8,0.5,1.7,0.5,2.6
			c0,0.9-0.2,1.8-0.5,2.6c-0.4,0.8-0.9,1.6-1.5,2.2c-0.7,0.6-1.4,1.1-2.3,1.4C31.9,39.9,31,40,30.1,40c-3.8,0-6.9-2.7-6.9-6.6
			c0-0.9,0.2-1.8,0.6-2.6c0.4-0.8,0.9-1.6,1.5-2.2c0.6-0.6,1.4-1.1,2.2-1.4C28.4,26.9,29.2,26.8,30.1,26.8z M30.1,37.3
			c0.8,0,1.6-0.2,2.2-0.6c0.7-0.4,1.2-1,1.5-1.7c0.3-0.7,0.4-1.5,0.3-2.3c-0.1-0.8-0.5-1.5-1-2.1c-0.5-0.6-1.2-1-2-1.1
			c-0.8-0.2-1.6-0.1-2.3,0.2c-0.7,0.3-1.3,0.8-1.8,1.4c-0.4,0.6-0.7,1.4-0.7,2.2c0,0.5,0,1,0.2,1.5c0.2,0.5,0.5,0.9,0.8,1.3
			c0.4,0.4,0.8,0.7,1.3,0.9C29.1,37.2,29.7,37.3,30.1,37.3L30.1,37.3z"/>
		<path d="M38.3,27.1h3.1v7.4c0,1.5,0.4,2.6,2,2.6c2.3,0,3.5-2,3.5-4.2v-5.8H50v12.6h-3v-1.4c0-0.3,0-0.6,0-0.9
			c-0.4,0.8-1,1.5-1.8,1.9c-0.8,0.5-1.7,0.7-2.5,0.7c-2.7,0-4.4-1.4-4.4-4.8V27.1z"/>
		<path d="M52.4,27.1h3v1.5c0,0.3,0,0.6-0.1,0.9h0.1c0.4-0.8,1.1-1.5,1.9-1.9c0.8-0.5,1.7-0.7,2.6-0.7c2.8,0,4.4,1.5,4.4,4.8v8.1
			h-3.1v-7.4c0-1.5-0.4-2.6-2-2.6c-0.8,0-1.5,0.2-2.1,0.7c-0.6,0.5-1.1,1.1-1.3,1.9c-0.2,0.5-0.2,1.1-0.2,1.7v5.8h-3.1V27.1z"/>
		<path d="M71.2,26.8c2.8,0,3.6,1.6,3.6,1.6h0c0,0,0-0.3,0-0.7v-5.5H78v17.5h-3v-1c0-0.3,0-0.5,0-0.8c-0.4,0.7-1,1.2-1.7,1.6
			c-0.7,0.4-1.5,0.6-2.3,0.5c-3.4,0-5.6-2.7-5.6-6.6S67.9,26.8,71.2,26.8z M71.8,37.4c1.6,0,3.2-1.2,3.2-4c0-1.9-1-3.9-3.1-3.9
			c-1.7,0-3.2,1.4-3.2,3.9C68.7,35.9,69.9,37.4,71.8,37.4z"/>
		<path d="M87.2,31.8h0.5v-0.2c0-1.6-1-2.2-2.4-2.2c-1.2,0.1-2.4,0.5-3.5,1.2l-1.2-2.2c1.4-1,3.2-1.6,4.9-1.6c3.3,0,5.2,1.8,5.2,5
			v7.9h-2.9v-1c0-0.3,0-0.6,0-0.9c-0.4,0.7-0.9,1.3-1.6,1.7c-0.7,0.4-1.5,0.6-2.2,0.6c-2.2,0-4.3-1.4-4.3-3.9
			C79.8,32.1,85.2,31.8,87.2,31.8z M84.8,37.5c1.7,0,2.9-1.8,2.9-3.3v-0.3h-0.5c-1.6,0-4.2,0.2-4.2,2c0,0.2,0,0.5,0.1,0.7
			c0.1,0.2,0.2,0.4,0.4,0.6c0.2,0.2,0.4,0.3,0.6,0.3C84.3,37.6,84.6,37.6,84.8,37.5L84.8,37.5z"/>
		<path d="M93.8,29.8h-1.6v-2.5h1.7v-3.6H97v3.6h2.9v2.5H97v4.9c0,0.3,0,0.7,0.1,1c0.1,0.3,0.3,0.6,0.5,0.8c0.2,0.2,0.5,0.4,0.8,0.5
			c0.3,0.1,0.6,0.1,1,0.1c0.2,0,0.4,0,0.6,0v2.7c-0.3,0-0.6,0.1-1,0.1c-1.8,0-5.2-0.5-5.2-4.8L93.8,29.8z"/>
		<path d="M101.9,22.2h3.1V25h-3.1V22.2z M101.9,27.1h3.1v12.6h-3.1V27.1z"/>
		<path d="M113.4,26.8c0.9,0,1.8,0.1,2.6,0.4c0.8,0.3,1.6,0.8,2.3,1.4c0.6,0.6,1.2,1.4,1.5,2.2c0.4,0.8,0.5,1.7,0.5,2.6
			c0,0.9-0.2,1.8-0.5,2.6c-0.4,0.8-0.9,1.6-1.5,2.2c-0.7,0.6-1.4,1.1-2.3,1.4c-0.8,0.3-1.7,0.4-2.6,0.4c-3.8,0-6.9-2.7-6.9-6.6
			c0-0.9,0.2-1.8,0.6-2.6c0.4-0.8,0.9-1.6,1.5-2.2c0.6-0.6,1.4-1.1,2.2-1.4C111.6,26.9,112.5,26.8,113.4,26.8z M113.4,37.3
			c0.8,0,1.6-0.2,2.2-0.6c0.7-0.4,1.2-1,1.5-1.7c0.3-0.7,0.4-1.5,0.3-2.3c-0.1-0.8-0.5-1.5-1-2.1c-0.5-0.6-1.2-1-2-1.1
			c-0.8-0.2-1.6-0.1-2.3,0.2c-0.7,0.3-1.3,0.8-1.8,1.4c-0.4,0.6-0.7,1.4-0.7,2.2c0,0.5,0,1,0.2,1.5s0.5,0.9,0.8,1.3
			c0.4,0.4,0.8,0.7,1.3,0.9C112.4,37.2,112.9,37.3,113.4,37.3L113.4,37.3z"/>
		<path d="M121.7,27.1h3v1.5c0,0.3,0,0.6,0,0.9h0c0.4-0.8,1.1-1.5,1.9-1.9c0.8-0.5,1.7-0.7,2.6-0.7c2.8,0,4.4,1.5,4.4,4.8v8.1h-3.1
			v-7.4c0-1.5-0.4-2.6-2-2.6c-0.8,0-1.5,0.2-2.1,0.7c-0.6,0.5-1.1,1.1-1.3,1.9c-0.2,0.5-0.2,1.1-0.2,1.7v5.8h-3.1L121.7,27.1z"/>
		<path d="M17.3,3.1h-5.8V0.3h14.8v2.8h-5.8V18h-3.2V3.1z"/>
		<path d="M25.5,5.3h3v2.2c0,0.3,0,0.6-0.1,0.9h0.1c0.2-0.9,0.7-1.7,1.5-2.3c0.7-0.6,1.6-0.9,2.5-1c0.2,0,0.4,0,0.6,0v3.1
			c-0.2,0-0.5,0-0.8,0c-0.8,0-1.6,0.3-2.2,0.7c-0.6,0.5-1.1,1.2-1.3,1.9c-0.2,0.7-0.3,1.4-0.3,2.1v5h-3.2V5.3z"/>
		<path d="M41.1,10h0.4V9.8c0-1.7-1-2.2-2.4-2.2c-1.3,0.1-2.5,0.5-3.5,1.2l-1.2-2.3c1.5-1,3.2-1.6,5-1.6c3.3,0,5.3,1.8,5.3,5.1V18
			h-2.9v-1c0-0.3,0-0.6,0-0.9h0c-0.4,0.7-0.9,1.3-1.6,1.7c-0.7,0.4-1.5,0.6-2.3,0.6c-2.3,0-4.3-1.4-4.3-4C33.6,10.3,39,10,41.1,10z
			 M38.6,15.8c1.7,0,2.9-1.8,2.9-3.3v-0.3h-0.6c-1.6,0-4.2,0.2-4.2,2c0,0.2,0.1,0.5,0.2,0.7c0.1,0.2,0.3,0.4,0.4,0.6
			c0.2,0.2,0.4,0.3,0.6,0.3C38.2,15.8,38.4,15.8,38.6,15.8L38.6,15.8z"/>
		<path d="M53.3,5c0.9,0,1.8,0.1,2.6,0.4c0.8,0.3,1.6,0.8,2.2,1.5L56.8,9c-0.9-0.9-2.1-1.3-3.3-1.4c-0.5,0-1,0.1-1.5,0.3
			c-0.5,0.2-0.9,0.5-1.2,0.8c-0.4,0.4-0.6,0.8-0.8,1.3c-0.2,0.5-0.3,1-0.3,1.5c0,0.5,0.1,1,0.3,1.5c0.2,0.5,0.5,0.9,0.9,1.3
			c0.4,0.4,0.8,0.7,1.3,0.9c0.5,0.2,1,0.3,1.5,0.3c1.4-0.1,2.7-0.7,3.7-1.6l1.2,2.2c-0.7,0.7-1.5,1.2-2.4,1.6
			c-0.9,0.4-1.9,0.5-2.8,0.5c-1.8,0-3.5-0.7-4.7-2c-1.2-1.2-2-2.9-2-4.7s0.7-3.5,2-4.7C49.8,5.6,51.5,4.9,53.3,5L53.3,5z"/>
		<path d="M60.2,0.3h3.2v9.5H65L68,5.3h3.5l-4,5.7v0l4.5,7h-3.6L65,12.5h-1.6V18h-3.2V0.3z"/>
		<path class="st1" d="M74.3,13.4c1.2,1.1,2.8,1.8,4.4,1.9c1.3,0,2.6-0.7,2.6-2.1c0-3.2-8.3-2.6-8.3-8c0-2.9,2.5-5.1,5.9-5.1
			c1.9-0.1,3.8,0.6,5.3,1.9l-1.4,2.6C81.6,3.6,80.2,3,78.8,3c-1.5,0-2.7,0.9-2.7,2.1c0,3.1,8.3,2.4,8.3,8c0,2.9-2.1,5.2-5.8,5.2
			c-1.1,0-2.2-0.2-3.3-0.6c-1-0.4-2-1-2.8-1.8L74.3,13.4z"/>
		<path class="st1" d="M95.8,13.4h-6.2l-1.5,4.5h-3.3L91,0.3h3.4l6.2,17.7h-3.3L95.8,13.4z M92.7,3.3c0,0-0.4,1.7-0.7,2.7l-1.6,4.8
			H95l-1.6-4.8C93.1,5.1,92.8,3.3,92.7,3.3L92.7,3.3z"/>
		<path class="st1" d="M102.3,0.3h10.1v2.8h-6.9v5h5.8v2.8h-5.8V18h-3.2L102.3,0.3z"/>
		<path class="st1" d="M114.3,0.3h10.6v2.8h-7.4v4.6h5.9v2.8h-5.9v4.8h7.8V18h-11V0.3z"/>
		<path class="st1" d="M5.7,0.3H0v39.4h5.7V0.3z"/>
	</g>
</g>
</svg>
